<svg width="25" height="25" viewBox="0 0 25 25" xmlns="http://www.w3.org/2000/svg" xmlns:xlink="http://www.w3.org/1999/xlink"><use xlink:href="#path0_fill" transform="translate(8 3)" fill="#2F9FDC"/><g transform="translate(-4472 4656)"><mask id="a"><path fill="#fff" transform="translate(4474 -4654)" d="M-2-2h25v25H-2z"/><use xlink:href="#path1_fill" transform="translate(4474 -4654)"/></mask><g mask="url(#a)"><use xlink:href="#path2_stroke_2x" transform="translate(4474 -4654)" fill="#2F9FDC"/></g></g><defs><path id="path0_fill" d="M1.488 6.2c.608-.235 1.2-.533 1.776-.896a7.462 7.462 0 0 0 1.584-1.392h1.056V15H4.416V5.976c-.128.117-.288.24-.48.368-.181.128-.384.25-.608.368-.213.117-.443.23-.688.336a7.063 7.063 0 0 1-.688.272L1.488 6.2z"/><path id="path1_fill" d="M21 10.5C21 16.299 16.299 21 10.5 21S0 16.299 0 10.5 4.701 0 10.5 0 21 4.701 21 10.5z"/><path id="path2_stroke_2x" d="M19.5 10.5a9 9 0 0 1-9 9v3c6.627 0 12-5.373 12-12h-3zm-9 9a9 9 0 0 1-9-9h-3c0 6.627 5.373 12 12 12v-3zm-9-9a9 9 0 0 1 9-9v-3c-6.627 0-12 5.373-12 12h3zm9-9a9 9 0 0 1 9 9h3c0-6.627-5.373-12-12-12v3z"/></defs></svg>