<svg width="25" height="25" viewBox="0 0 25 25" xmlns="http://www.w3.org/2000/svg" xmlns:xlink="http://www.w3.org/1999/xlink"><use xlink:href="#path0_fill" transform="translate(8 3)" fill="#2F9FDC"/><g transform="translate(-4472 4550)"><mask id="a"><path fill="#fff" transform="translate(4474 -4548)" d="M-2-2h25v25H-2z"/><use xlink:href="#path1_fill" transform="translate(4474 -4548)"/></mask><g mask="url(#a)"><use xlink:href="#path2_stroke_2x" transform="translate(4474 -4548)" fill="#2F9FDC"/></g></g><defs><path id="path0_fill" d="M7.472 6.744c0 .384-.08.757-.24 1.12a5.4 5.4 0 0 1-.608 1.056c-.256.341-.544.683-.864 1.024-.32.33-.64.656-.96.976l-.64.64c-.235.245-.459.501-.672.768a7.402 7.402 0 0 0-.544.768c-.139.245-.208.459-.208.64H7.84V15H1.12a1.166 1.166 0 0 1-.016-.192v-.176c0-.501.08-.965.24-1.392.17-.437.39-.848.656-1.232.267-.384.565-.747.896-1.088.33-.341.656-.672.976-.992.267-.256.517-.507.752-.752.245-.256.459-.507.64-.752.192-.256.341-.517.448-.784.117-.267.176-.55.176-.848 0-.32-.053-.592-.16-.816a1.535 1.535 0 0 0-.4-.56 1.513 1.513 0 0 0-.608-.32A2.263 2.263 0 0 0 4 4.984c-.31 0-.592.043-.848.128a3.715 3.715 0 0 0-.688.304 2.395 2.395 0 0 0-.512.352 70.52 70.52 0 0 0-.32.272L.896 4.984c.096-.107.24-.235.432-.384.192-.16.421-.31.688-.448a4.9 4.9 0 0 1 .896-.352 3.83 3.83 0 0 1 1.072-.144c1.163 0 2.032.272 2.608.816.587.533.88 1.29.88 2.272z"/><path id="path1_fill" d="M21 10.5C21 16.299 16.299 21 10.5 21S0 16.299 0 10.5 4.701 0 10.5 0 21 4.701 21 10.5z"/><path id="path2_stroke_2x" d="M19.5 10.5a9 9 0 0 1-9 9v3c6.627 0 12-5.373 12-12h-3zm-9 9a9 9 0 0 1-9-9h-3c0 6.627 5.373 12 12 12v-3zm-9-9a9 9 0 0 1 9-9v-3c-6.627 0-12 5.373-12 12h3zm9-9a9 9 0 0 1 9 9h3c0-6.627-5.373-12-12-12v3z"/></defs></svg>