<svg width="25" height="25" viewBox="0 0 25 25" xmlns="http://www.w3.org/2000/svg" xmlns:xlink="http://www.w3.org/1999/xlink"><use xlink:href="#path0_fill" transform="translate(8 3)" fill="#2F9FDC"/><g transform="translate(-4472 4439)"><mask id="a"><path fill="#fff" transform="translate(4474 -4437)" d="M-2-2h25v25H-2z"/><use xlink:href="#path1_fill" transform="translate(4474 -4437)"/></mask><g mask="url(#a)"><use xlink:href="#path2_stroke_2x" transform="translate(4474 -4437)" fill="#2F9FDC"/></g></g><defs><path id="path0_fill" d="M3.616 13.912c.95 0 1.627-.187 2.032-.56.416-.373.624-.875.624-1.504 0-.405-.085-.747-.256-1.024a1.885 1.885 0 0 0-.672-.656 2.72 2.72 0 0 0-.976-.352 5.54 5.54 0 0 0-1.12-.112h-.384V8.488h.528c.267 0 .539-.027.816-.08.288-.053.55-.15.784-.288a1.7 1.7 0 0 0 .576-.56c.15-.245.224-.55.224-.912a1.7 1.7 0 0 0-.16-.768 1.496 1.496 0 0 0-.432-.528 1.462 1.462 0 0 0-.608-.288 2.61 2.61 0 0 0-.72-.096c-.512 0-.95.075-1.312.224-.352.15-.65.304-.896.464L1.088 4.52c.128-.085.288-.176.48-.272.203-.107.427-.203.672-.288.245-.085.507-.155.784-.208a4.12 4.12 0 0 1 .896-.096c.587 0 1.093.075 1.52.224a2.7 2.7 0 0 1 1.056.608c.277.256.485.565.624.928.139.352.208.736.208 1.152 0 .576-.165 1.072-.496 1.488-.33.405-.73.715-1.2.928a3.6 3.6 0 0 1 .832.368 2.5 2.5 0 0 1 .688.608c.203.245.363.528.48.848.128.32.192.677.192 1.072a3.5 3.5 0 0 1-.256 1.344c-.16.405-.416.757-.768 1.056-.341.299-.773.533-1.296.704-.523.17-1.141.256-1.856.256a6.07 6.07 0 0 1-.864-.064 9.223 9.223 0 0 1-1.488-.352 3.483 3.483 0 0 1-.416-.16l.288-1.296c.181.085.48.197.896.336.427.139.944.208 1.552.208z"/><path id="path1_fill" d="M21 10.5C21 16.299 16.299 21 10.5 21S0 16.299 0 10.5 4.701 0 10.5 0 21 4.701 21 10.5z"/><path id="path2_stroke_2x" d="M19.5 10.5a9 9 0 0 1-9 9v3c6.627 0 12-5.373 12-12h-3zm-9 9a9 9 0 0 1-9-9h-3c0 6.627 5.373 12 12 12v-3zm-9-9a9 9 0 0 1 9-9v-3c-6.627 0-12 5.373-12 12h3zm9-9a9 9 0 0 1 9 9h3c0-6.627-5.373-12-12-12v3z"/></defs></svg>