<svg width="23" height="17" viewBox="0 0 23 17" xmlns="http://www.w3.org/2000/svg" xmlns:xlink="http://www.w3.org/1999/xlink"><use xlink:href="#path0_fill" transform="translate(3)" fill="#FFF"/><use xlink:href="#path1_fill" transform="translate(8 7)" fill="#FFF"/><use xlink:href="#path2_fill" transform="translate(0 14)" fill="#FFF"/><defs><path id="path0_fill" d="M1.5 3h17c.8 0 1.5-.7 1.5-1.5S19.3 0 18.5 0h-17C.6 0 0 .7 0 1.5S.6 3 1.5 3z"/><path id="path1_fill" d="M13.5 0h-12C.7 0 0 .6 0 1.5S.7 3 1.5 3h11.9c.8 0 1.5-.7 1.5-1.5S14.3 0 13.5 0z"/><path id="path2_fill" d="M21.5 0h-20C.7 0 0 .6 0 1.5 0 2.3.7 3 1.5 3h20c.8 0 1.5-.7 1.5-1.5 0-.9-.7-1.5-1.5-1.5z"/></defs></svg>