<svg width="102" height="74" viewBox="0 0 102 74" xmlns="http://www.w3.org/2000/svg" xmlns:xlink="http://www.w3.org/1999/xlink"><g transform="translate(-11 58)"><use xlink:href="#path0_fill" fill="#FFF"/><use xlink:href="#path1_fill" fill="red"/></g><use xlink:href="#path2_fill" transform="translate(5.25 .24)" fill="#ED1C24"/><use xlink:href="#path3_fill" transform="translate(18.29 4.35)" fill="#FFF"/><use xlink:href="#path4_fill" transform="translate(77.64 31.02)" fill="#1A1A1A"/><use xlink:href="#path5_fill" transform="translate(1.7 7.07)" fill="#1A1A1A"/><use xlink:href="#path6_fill" transform="translate(82.3 6.68)" fill="#1A1A1A"/><use xlink:href="#path7_fill" transform="translate(5.27 30.78)" fill="#1A1A1A"/><use xlink:href="#path8_fill" transform="translate(70.96 25.82)" fill="#FFF"/><use xlink:href="#path9_fill" transform="translate(9.81 25.75)" fill="#FFF"/><use xlink:href="#path10_fill" transform="translate(29.76 48.58)" fill="#1A1A1A"/><use xlink:href="#path11_fill" transform="translate(29.3 48.17)" fill="#1A1A1A"/><use xlink:href="#path12_fill" transform="translate(27.01 .4)" fill="#1A1A1A"/><use xlink:href="#path13_fill" transform="translate(26.45)" fill="#1A1A1A"/><use xlink:href="#path14_fill" transform="translate(13.99 36.19)" fill="#1A1A1A"/><use xlink:href="#path15_fill" transform="translate(13.57 35.78)" fill="#1A1A1A"/><g fill="#1A1A1A"><use xlink:href="#path16_fill" transform="translate(77.16 36.43)"/><use xlink:href="#path17_fill" transform="translate(76.72 36.13)"/></g><g fill="#1A1A1A"><use xlink:href="#path18_fill" transform="translate(67.21 22.17)"/><use xlink:href="#path19_fill" transform="translate(66.77 22.12)"/></g><g transform="translate(25.31 21.73)" fill="#1A1A1A"><use xlink:href="#path20_fill"/><use xlink:href="#path21_fill"/></g><defs><path id="path0_fill" d="M11.007 15h8.96v-1.66h-7.02v-4.8h5.8V6.92h-5.8V2.8h6.52V1.14h-8.46V15zM33.633 1.14h-2.08c-.72 2.12-1.42 4.14-2.1 6.1-.7 1.96-1.42 3.78-2.14 5.46a76.64 76.64 0 0 1-2.14-5.48c-.7-1.94-1.4-3.96-2.12-6.08h-2.14c.48 1.48.96 2.84 1.44 4.08.46 1.24.92 2.42 1.36 3.54.44 1.12.88 2.2 1.32 3.22.44 1.02.88 2.02 1.34 3.02h1.82c.44-1 .88-2 1.32-3.02.44-1.02.88-2.1 1.32-3.22.44-1.12.88-2.3 1.34-3.54.46-1.24.94-2.6 1.46-4.08zM35.558 15h8.96v-1.66h-7.02v-4.8h5.8V6.92h-5.8V2.8h6.52V1.14h-8.46V15zm18.206-5.8c.94-.32 1.66-.8 2.14-1.46.48-.64.74-1.44.74-2.36 0-1.44-.52-2.54-1.54-3.28-1.02-.72-2.5-1.1-4.44-1.1-.56 0-1.18.04-1.86.08-.68.04-1.28.14-1.82.26V15h1.94V9.58h2.28c.18 0 .36 0 .54-.02.24.32.52.68.84 1.08.32.42.64.86.96 1.34.32.48.62.96.94 1.48.32.52.6 1.04.88 1.54h2.12c-.24-.52-.54-1.08-.88-1.66-.34-.56-.68-1.12-1.02-1.64-.36-.52-.7-1-1.02-1.44-.32-.44-.6-.78-.8-1.06zm-2.94-6.5c.52 0 1 .04 1.46.12.46.08.86.22 1.2.42.34.2.62.48.82.82.2.36.3.78.3 1.3 0 .56-.1 1.02-.3 1.36-.2.34-.5.6-.86.78-.36.2-.82.32-1.34.38-.54.08-1.14.1-1.8.1h-1.38V2.76c.44-.04 1.06-.06 1.9-.06zM62.49 15h1.94V9.4c.9-1.4 1.76-2.8 2.58-4.18.8-1.38 1.58-2.74 2.3-4.08h-2.16a59 59 0 0 1-1.72 3.34c-.64 1.12-1.28 2.2-1.92 3.24-.68-1.04-1.32-2.12-1.94-3.24-.64-1.12-1.2-2.24-1.7-3.34h-2.28c.72 1.34 1.48 2.7 2.3 4.08.8 1.4 1.68 2.8 2.6 4.22V15zm14.853.28c1.04 0 1.98-.1 2.78-.32.8-.2 1.42-.44 1.86-.72l-.86-2.5c-.18.08-.38.18-.58.26a5.875 5.875 0 0 1-1.7.44c-.36.06-.78.08-1.22.08-.72 0-1.34-.1-1.84-.34-.52-.24-.92-.56-1.24-.96-.32-.4-.54-.86-.68-1.42-.14-.56-.2-1.16-.2-1.8 0-.8.1-1.48.32-2.04.2-.56.48-1 .84-1.36.36-.36.76-.62 1.22-.78.46-.16.94-.24 1.42-.24.72 0 1.36.08 1.92.24.56.16 1.06.36 1.5.58l.9-2.52c-.12-.06-.28-.16-.52-.28-.24-.12-.54-.22-.9-.34-.36-.12-.78-.22-1.26-.3-.48-.08-1.02-.14-1.6-.14-1.02 0-1.96.16-2.82.48-.88.32-1.62.8-2.24 1.42-.64.62-1.12 1.38-1.48 2.28-.36.9-.54 1.92-.54 3.06 0 2.32.58 4.1 1.76 5.34 1.18 1.26 2.9 1.88 5.16 1.88zM93.839 15h3.34c-.52-1.48-1.02-2.86-1.48-4.14-.48-1.26-.94-2.46-1.38-3.58-.44-1.12-.88-2.18-1.32-3.18-.44-1-.9-2-1.34-2.96h-2.98c-.48.96-.92 1.96-1.36 2.96-.44 1-.88 2.06-1.32 3.18-.44 1.12-.9 2.32-1.36 3.58-.48 1.28-.96 2.66-1.48 4.14h3.24c.14-.48.3-.96.48-1.48.18-.5.36-1 .54-1.52h5.4c.16.52.34 1.02.52 1.52.18.52.34 1 .5 1.48zm-3.74-10.72c.08.2.18.48.32.82.12.36.28.76.46 1.2.18.46.38.96.58 1.5.2.56.4 1.12.62 1.72h-3.94c.2-.6.42-1.16.62-1.72.2-.54.4-1.04.58-1.5.16-.44.32-.84.46-1.2.12-.34.22-.62.3-.82z"/><path id="path1_fill" d="M103.033.98c-.58 0-1.24.04-1.96.08-.72.06-1.42.16-2.1.28V15h3.12V9.94h1.54c.26.32.52.68.8 1.08.26.4.52.8.8 1.24.28.44.54.9.8 1.36.26.48.52.94.78 1.38h3.5c-.24-.5-.5-1.02-.78-1.54s-.58-1.04-.88-1.52c-.3-.48-.6-.96-.9-1.4-.32-.44-.6-.84-.88-1.2.84-.34 1.48-.82 1.92-1.42.44-.6.68-1.4.68-2.38 0-1.56-.56-2.7-1.66-3.44-1.12-.74-2.7-1.12-4.78-1.12zm.18 2.66c1 0 1.74.16 2.26.44.52.28.78.76.78 1.44 0 .72-.26 1.22-.76 1.5-.52.3-1.36.44-2.52.44h-.88V3.7c.16 0 .32-.02.5-.04.18 0 .38-.02.62-.02z"/><path id="path2_fill" d="M1.527 48.26L0 18.901s9.597-2.153 13.087-9.35C18.757-2.193 36.424.2 46.02.2c9.597 0 25.737-.87 31.408 6.742 5.67 7.61 14.613 11.96 14.613 11.96v28.053l-46.02 3.261L1.526 48.26z"/><path id="path3_fill" d="M0 11.725a410.87 410.87 0 0 1 2.465-2.827 686.914 686.914 0 0 0 5.278-5.959c1.33-1.544 3.271-1.892 5.19-2.087 8.813-.87 17.646-1 26.501-.718 1.483.044 2.967 0 4.45.087 3.184.174 6.368.435 9.553.63 2.748.175 4.624 1.523 6.216 3.48 1.963 2.414 4.1 4.719 6.173 7.068.043.043.043.108.087.304-.197.174-.415.478-.72.587-1.44.457-2.966.718-4.384 1.261-1.985.762-3.948.37-5.954.305-4.58-.152-9.14-.392-13.72-.413-8.79-.022-17.557.043-26.347.13-2.181.022-4.362.24-6.543.457-1.418.152-2.618-.457-3.905-.74-1.068-.239-2.093-.587-3.119-.935-.349-.108-.676-.326-1.221-.63z"/><path id="path4_fill" d="M19.456 20.093H.088c-.043-.587-.087-2.566-.087-3.044-.022-.674.327-.979 1.003-1.087 3.076-.479 6.151-.935 9.205-1.48 2.137-.39 4.274-.89 6.674-1.39.13-.436.37-1.001.458-1.588.436-2.85.85-5.698 1.265-8.547.087-.63.087-1.26.152-1.891.044-.348.11-.675.175-1.023.13-.021.283-.021.414-.043.087.457.262.892.262 1.348.022 2.632.022 5.263.022 7.894 0 2.566.022 5.11 0 7.677-.022.543-.11 2.609-.175 3.174z"/><path id="path5_fill" d="M3.87 12.895v6.372c-.306-.26-.436-.326-.436-.413a535.96 535.96 0 0 1-.742-5.85c-.087-.826.13-1.37 1.069-1.652 1.156-.327 2.268-.87 3.38-1.37.35-.153.655-.435 1.2-.827-2.966-1.065-5.693-2.066-8.288-3-.284-1.632.61-3.828 1.81-4.459.436-.217 1.003-.282 1.505-.239 2.4.196 4.799.435 7.198.74.48.065.938.39 1.505.63-.066 1.283-.11 2.523-.175 3.762.087.065.196.13.284.174C14.252 4.588 16.324 2.37 18.549 0c.043.37.13.544.065.609-2.247 2.827-4.428 5.676-6.805 8.394-.742.826-1.941 1.305-2.988 1.805-1.549.717-3.163 1.348-4.951 2.087z"/><path id="path6_fill" d="M15.224 19.028c-.044-.305-.109-.61-.13-.892-.066-1.326-.175-2.675-.153-4.001.021-1.153-.677-1.631-1.593-2-1.461-.588-2.9-1.262-4.384-1.806-1.44-.522-2.333-1.609-3.228-2.718A720.892 720.892 0 0 1 .59 1.305 2.77 2.77 0 0 1 0 0c2.29 2.196 4.559 4.393 7.001 6.763-.043-.913-.065-1.696-.152-2.479-.175-1.522.24-2.044 1.745-2.175 2.224-.217 4.427-.435 6.63-.696 1.287-.152 2.247.261 2.77 1.501.393.913 1.112 1.718.982 3.088-2.749 1-5.519 2-8.528 3.11 1.657 1.283 3.555 1.609 5.19 2.5v7.394c-.13.022-.261.022-.414.022z"/><path id="path7_fill" d="M.26 20.333C-.198 18.593-.023 6.937.566 0c1.243 4.48 1.286 8.96 2.333 13.352 4.733.913 9.51 1.827 14.483 2.784.283.587.502 2.979.022 4.197H.26z"/><path id="path8_fill" d="M22.095.326c-.524.957-1.004 1.914-1.57 2.849-.568.935-1.2 1.848-1.79 2.762-.85 1.37-2.137 1.957-3.685 2.13-3.316.392-6.61.827-9.924 1.219C3.468 9.48 1.81 9.59 0 9.742c.044-.348-.022-.696.11-.913C1.308 6.98 3.031 5.915 5.17 5.37c1.635-.413 3.205-1.022 4.82-1.565 1.679-.566 3.336-1.153 4.994-1.718A218.032 218.032 0 0 1 20.306.304c.502-.152 1.047-.217 1.57-.304.088.109.153.217.218.326z"/><path id="path9_fill" d="M.24 0c1.178.37 2.334.74 3.51 1.13 1.636.544 3.272 1.11 4.908 1.654 1.767.608 3.555 1.196 5.344 1.783a288.49 288.49 0 0 0 4.602 1.544c1.396.456 2.944 2 3.446 3.523-.153.065-.327.195-.48.173-2.094-.239-4.188-.521-6.303-.782-2.312-.283-4.646-.718-6.958-.783-2.574-.065-4.58-.783-5.802-3.24C1.854 3.697.981 2.5.24 1.24.087.979.065.63 0 .304.065.196.153.11.24 0z"/><path id="path10_fill" d="M43.164.48c-.262.088-.523.218-.807.24C28.223 2.112 14.112 2.286.022.524.022.394 0 .264 0 .154.436.112.872-.018 1.309.003c4.078.153 8.179.327 12.257.5C20.94.808 28.29.656 35.661.177c2.225-.152 4.471-.13 6.696-.174.262 0 .523.11.785.153a.77.77 0 0 0 .022.326z"/><path id="path11_fill" d="M43.622.894c-.218.065-.414.174-.633.24-.218.043-.458.064-.676.086l-1.352.152c-.894.11-1.788.196-2.683.283a224.86 224.86 0 0 1-5.387.457c-3.599.239-7.22.413-10.818.435-3.62.043-7.22-.044-10.84-.218-3.6-.195-7.22-.522-10.797-.957L.087 1.33.065.98.044.611 0 .198.414.155C.83.11 1.287-.02 1.832.002l1.352.066L5.89.176l5.387.24c1.81.087 3.6.174 5.388.239 1.788.065 3.598.087 5.387.109C25.65.785 29.249.742 32.825.59 33.72.568 34.614.524 35.53.48c.894-.043 1.81-.086 2.705-.086h2.704l1.352.022c.219 0 .437 0 .677.021.218.022.436.11.654.174v.283zm0 0L43.578.59c-.218-.044-.436-.13-.654-.13-.218 0-.458.02-.676.02l-1.352.044C40 .546 39.107.568 38.19.611c-.894.044-1.788.109-2.683.174-.894.066-1.788.13-2.704.196-3.6.24-7.198.391-10.797.413-1.81.022-3.599.022-5.409-.022-1.81-.043-3.599-.108-5.409-.174l-5.387-.195L3.097.894 1.745.851C1.375.829.96.938.48 1.003L.872.546l.022.37-.37-.392c3.576.457 7.153.783 10.73 1 3.6.24 7.198.327 10.797.37 3.599.022 7.198-.043 10.796-.195 1.81-.066 3.6-.153 5.41-.261.894-.066 1.788-.11 2.704-.174l1.352-.087c.218-.022.458-.022.676-.066.197-.043.415-.152.633-.217z"/><path id="path12_fill" d="M48.377 2.104c-.85-.066-1.702-.13-2.53-.24-.633-.087-1.244-.304-1.854-.326-8.681-.37-17.362-1-26.064-.696-4.864.174-9.728.435-14.592.696-.436.022-.85.261-1.287.326-.632.087-1.265.13-2.05.196.11-.326.13-.391.153-.391C1.353 1.386 2.53.95 3.75.82 10.6.059 17.47-.05 24.34.015c3.206.022 6.39-.022 9.597.109 3.555.152 7.11.413 10.665.74 1.287.108 2.552.543 3.817.825-.021.13-.021.283-.043.414z"/><path id="path13_fill" d="M48.944 2.507l-1.505-.109-.764-.043a9.11 9.11 0 0 1-.763-.087c-.502-.109-.981-.24-1.483-.218l-1.505-.065-6.063-.196a374.71 374.71 0 0 0-12.105-.282c-2.007 0-4.036.043-6.042.13l-6.042.305-6.063.304-1.505.065-.764.044-.37.022c-.11 0-.175.021-.284.043-.196.044-.436.152-.72.217a.777.777 0 0 1-.218.044l-.196.022a2.41 2.41 0 0 1-.393.043c-.523.044-1.025.087-1.505.13L0 2.943l.218-.63.131-.37c0-.022 0-.022.022-.066 0-.021.022-.043.065-.087 0-.065.306-.174.24-.152l.044-.022.087-.021.174-.044.742-.196c.502-.13.982-.282 1.505-.391a13.394 13.394 0 0 1 1.549-.24C5.278.68 5.802.616 6.303.573c2.029-.196 4.079-.327 6.13-.414A191.19 191.19 0 0 1 24.69.05l6.107.087c2.05.043 4.079.13 6.129.282 2.028.153 4.079.327 6.107.522l1.527.153c.502.065 1.025.086 1.527.195 1.003.196 1.963.544 2.966.783l-.11.435zm0 0l.022-.413c-1.004-.196-1.985-.5-2.989-.653-.501-.087-1.003-.108-1.504-.152l-1.527-.109c-2.029-.13-4.079-.239-6.107-.326C32.76.637 28.703.746 24.625.746c-2.029 0-4.08.021-6.108.043-2.028.044-4.078.109-6.107.218a143 143 0 0 0-6.085.434c-.501.044-1.003.11-1.527.153-.523.043-.981.108-1.46.217-.48.109-.96.24-1.462.37l-.742.196-.196.043-.087.022-.044.022c-.065.021.218-.087.218-.153.022-.043.044-.065.044-.087v-.021l-.131.37-.458-.588c.501-.043 1.025-.087 1.505-.13.24-.022.501-.044.676-.11.218-.043.436-.151.72-.217.13-.043.305-.065.458-.065l.37-.022.764-.043 1.505-.065 6.129-.218L18.67.876C20.7.811 22.727.811 24.755.833c4.057.065 8.092.282 12.127.521l6.042.392 1.505.087c.523.022 1.025.174 1.505.283.24.065.48.108.742.13l.741.087 1.527.174z"/><path id="path14_fill" d="M11.384 1.674H1.461c-.088 1.61-.175 2.958-.24 4.328-.11 0-.24.022-.35.022C.436 4.132-.24 2.262.087 0c3.817.413 7.547.805 11.298 1.218-.021.152 0 .304 0 .456z"/><path id="path15_fill" d="M11.808 2.088l-2.4.108-2.464.11c-.83.043-1.68.064-2.509.086l-2.53.065.371-.348-.087 2.175a72.321 72.321 0 0 1-.11 2.175l-.02.37-.394.021-.348.022-.35.022-.087-.348C.662 5.567.357 4.588.182 3.545a12.734 12.734 0 0 1-.174-1.566A7.78 7.78 0 0 1 .095.39L.161 0l.392.043 2.814.348 2.813.37c.938.13 1.876.261 2.814.413.938.153 1.876.283 2.814.457h.021v.022l-.021.435zm0 0l-.044-.435.022.021c-.938-.043-1.898-.087-2.836-.152l-2.835-.195-2.835-.24L.444.827.88.477c-.065.48-.065.958-.065 1.458.022.479.087.979.174 1.457.175.979.458 1.936.698 2.958l-.436-.326.35-.022-.394.391c.044-.717.088-1.435.131-2.174l.153-2.175.022-.348h.349c.807 0 1.614.044 2.42.065.808.022 1.615.066 2.444.087l5.082.24z"/><path id="path16_fill" d="M10.251 5.089c-.174-1.066-.37-2.11-.589-3.415H.022C.022 1.522 0 1.37 0 1.218 3.642.805 7.285.39 10.905 0c.59 1.066.35 4.306-.327 5.067-.087 0-.218.022-.327.022z"/><path id="path17_fill" d="M10.687 5.393l-.392-1.653c-.131-.565-.262-1.152-.393-1.74l.197.175-2.4.087-2.399.065-2.4.043c-.806.022-1.613.022-2.398.022H.087L.065 1.98l-.043-.457L0 1.131l.393-.044C1.309.98 2.203.87 3.119.783 4.035.696 4.929.587 5.845.5L8.572.24l2.726-.218.196-.022.066.152c.218.479.262.935.283 1.37.022.457 0 .892-.043 1.327a6.93 6.93 0 0 1-.24 1.304c-.11.414-.262.87-.546 1.197l-.327.043zm0 0l.35-.043h-.023c.11-.174.197-.37.262-.588.066-.195.11-.413.131-.63.066-.435.087-.848.087-1.283 0-.435-.021-.848-.065-1.283-.044-.413-.153-.848-.327-1.153l.283.152L8.66.957l-2.726.348-2.727.326c-.916.109-1.81.217-2.726.304L.85 1.5l.022.457-.414-.413c.807 0 1.614 0 2.4.022l2.398.043 2.4.065 2.399.087h.174l.022.153c.066.543.131 1.109.197 1.696l.24 1.783z"/><path id="path18_fill" d="M10.513.261C7 4.48 2.705 8.894.109 13.831c-.109-.044 0-.74-.109-.805.022-.261-.044-.544.065-.761C1.287 9.307 3.032 6.72 5.431 4.567 7.067 3.088 8.637 1.522 10.229 0c.088.087.197.174.284.261z"/><path id="path19_fill" d="M10.959.304c-.85 1.153-1.745 2.262-2.64 3.393-.894 1.109-1.788 2.218-2.66 3.349a77.362 77.362 0 0 0-2.53 3.436c-.786 1.174-1.549 2.37-2.181 3.61l-.175.347-.37-.174a.679.679 0 0 1-.132-.087c-.021-.021-.043-.065-.065-.087-.022-.021-.022-.043-.044-.065 0-.021-.021-.021-.021-.043-.022-.066-.022-.087-.044-.13 0-.066-.022-.11-.022-.153v-.435.044c0 .021.022.021.022.043l.065.065a.473.473 0 0 0 .11.087l-.262-.413c0-.13-.022-.304 0-.543 0-.11.043-.261.087-.392l.109-.24c.13-.325.284-.652.436-.978.306-.652.655-1.283 1.025-1.892.764-1.217 1.636-2.37 2.64-3.392.501-.522 1.046-1 1.57-1.457a48.528 48.528 0 0 0 1.592-1.392C8.516 1.87 9.563.935 10.653.022L10.675 0l.022.022.262.282zm0 0l-.306-.239h.044a1801046111097392 1801046111097392 0 0 0-4.406 4.567c-.523.478-1.003.957-1.461 1.479-.916 1.043-1.745 2.153-2.421 3.349a18.177 18.177 0 0 0-.96 1.826c-.152.305-.283.63-.414.957l-.11.24c-.021.043-.021.064-.021.13v.522l-.262-.413a.679.679 0 0 1 .131.086c.022.022.044.066.066.087.021.022.021.044.043.066 0 .021.022.021.022.043a.322.322 0 0 1 .022.13c0 .066.022.11.022.153v.413-.022c0-.022-.022-.022-.022-.043-.022-.022-.044-.044-.044-.065-.022-.022-.065-.066-.109-.066l-.567.196c.676-1.283 1.461-2.5 2.29-3.675A50.977 50.977 0 0 1 5.18 6.633a100.274 100.274 0 0 1 2.879-3.197l2.9-3.132z"/><path id="path20_fill" d="M0 0c4.188 2.523 9.4 9.286 9.88 12.656C9.88 12.656.174.217 0 0z"/><path id="path21_fill" d="M0 0c1.221.63 2.312 1.479 3.359 2.37a30.765 30.765 0 0 1 2.879 2.958A28.64 28.64 0 0 1 8.68 8.677c.349.587.698 1.196.981 1.848l.218.479c.066.152.11.348.175.5.13.326.196.696.262 1.065l.414 1.87-1.178-1.544c-.829-1.087-1.68-2.174-2.508-3.283a159.98 159.98 0 0 1-2.421-3.327L2.29 3.045A335.433 335.433 0 0 0 0 0zm0 0c.894 1.109 1.767 2.196 2.66 3.24.873 1.044 1.768 2.088 2.618 3.088.873 1 1.68 2 2.509 3.001.828 1 1.614 2.022 2.42 3.044l-.785.327c-.065-.305-.109-.61-.24-.914a3.693 3.693 0 0 0-.152-.456l-.197-.457c-.261-.609-.588-1.196-.916-1.761-.654-1.153-1.44-2.262-2.268-3.35a39.477 39.477 0 0 0-2.64-3.087A20.94 20.94 0 0 0 0 0z"/></defs></svg>